<svg width="74" height="74" viewBox="0 0 74 74" fill="none" xmlns="http://www.w3.org/2000/svg">
<path d="M58.8621 16.2815C54.7994 14.3876 50.4006 13.013 45.8186 12.2188C45.738 12.2199 45.6612 12.2528 45.6048 12.3104C45.0549 13.3184 44.4135 14.632 43.9858 15.64C39.1258 14.9073 34.1833 14.9073 29.3233 15.64C28.8956 14.6014 28.2542 13.3184 27.6738 12.3104C27.6432 12.2493 27.5516 12.2188 27.4599 12.2188C22.8779 13.013 18.5097 14.3876 14.4164 16.2815C14.3859 16.2815 14.3553 16.312 14.3248 16.3426C6.01603 28.7752 3.72502 40.8717 4.85525 52.8461C4.85525 52.9072 4.8858 52.9683 4.94689 52.9988C10.4453 57.031 15.7299 59.4748 20.9535 61.0938C21.0451 61.1243 21.1367 61.0938 21.1673 61.0327C22.3892 59.3526 23.4888 57.5809 24.4358 55.7175C24.4969 55.5953 24.4358 55.4731 24.3136 55.4426C22.5724 54.7705 20.9229 53.9763 19.3039 53.0599C19.1817 52.9988 19.1817 52.8155 19.2734 52.7239C19.6094 52.4795 19.9454 52.2046 20.2814 51.9602C20.3425 51.8991 20.4342 51.8991 20.4953 51.9297C31.0034 56.7255 42.3363 56.7255 52.7222 51.9297C52.7833 51.8991 52.8749 51.8991 52.936 51.9602C53.272 52.2352 53.6081 52.4795 53.9441 52.7545C54.0663 52.8461 54.0663 53.0294 53.9135 53.0905C52.3251 54.0374 50.645 54.8011 48.9038 55.4731C48.7817 55.5037 48.7511 55.6564 48.7817 55.748C49.7592 57.6114 50.8588 59.3831 52.0502 61.0632C52.1418 61.0938 52.2334 61.1243 52.3251 61.0938C57.5792 59.4748 62.8638 57.031 68.3622 52.9988C68.4233 52.9683 68.4538 52.9072 68.4538 52.8461C69.7979 39.0084 66.2239 27.0034 58.9843 16.3426C58.9538 16.312 58.9232 16.2815 58.8621 16.2815ZM26.0242 45.5454C22.8779 45.5454 20.2509 42.6434 20.2509 39.0695C20.2509 35.4955 22.8168 32.5935 26.0242 32.5935C29.2622 32.5935 31.8281 35.526 31.7976 39.0695C31.7976 42.6434 29.2317 45.5454 26.0242 45.5454ZM47.3154 45.5454C44.1691 45.5454 41.542 42.6434 41.542 39.0695C41.542 35.4955 44.108 32.5935 47.3154 32.5935C50.5534 32.5935 53.1193 35.526 53.0888 39.0695C53.0888 42.6434 50.5534 45.5454 47.3154 45.5454Z" fill="white"/>
</svg>
