<svg width="74" height="74" viewBox="0 0 74 74" fill="none" xmlns="http://www.w3.org/2000/svg">
<path d="M9.16406 33.6016C9.16406 22.0823 9.16406 16.3212 12.7442 12.7442C16.3212 9.16406 22.0823 9.16406 33.6016 9.16406H39.7109C51.2302 9.16406 56.9913 9.16406 60.5683 12.7442C64.1484 16.3212 64.1484 22.0823 64.1484 33.6016V39.7109C64.1484 51.2302 64.1484 56.9913 60.5683 60.5683C56.9913 64.1484 51.2302 64.1484 39.7109 64.1484H33.6016C22.0823 64.1484 16.3212 64.1484 12.7442 60.5683C9.16406 56.9913 9.16406 51.2302 9.16406 39.7109V33.6016Z" stroke="white" stroke-width="6.10938"/>
<path d="M50.4023 27.4922C52.9329 27.4922 54.9844 25.4407 54.9844 22.9102C54.9844 20.3796 52.9329 18.3281 50.4023 18.3281C47.8718 18.3281 45.8203 20.3796 45.8203 22.9102C45.8203 25.4407 47.8718 27.4922 50.4023 27.4922Z" fill="white"/>
<path d="M36.6562 45.8203C41.7174 45.8203 45.8203 41.7174 45.8203 36.6562C45.8203 31.5951 41.7174 27.4922 36.6562 27.4922C31.5951 27.4922 27.4922 31.5951 27.4922 36.6562C27.4922 41.7174 31.5951 45.8203 36.6562 45.8203Z" stroke="white" stroke-width="6.10938"/>
</svg>
