<svg width="52" height="52" viewBox="0 0 52 52" fill="none" xmlns="http://www.w3.org/2000/svg">
<g clip-path="url(#clip0_1147_9102)">
<mask id="mask0_1147_9102" style="mask-type:alpha" maskUnits="userSpaceOnUse" x="0" y="0" width="52" height="52">
<path d="M25.875 51.75C40.1654 51.75 51.75 40.1654 51.75 25.875C51.75 11.5846 40.1654 0 25.875 0C11.5846 0 0 11.5846 0 25.875C0 40.1654 11.5846 51.75 25.875 51.75Z" fill="#231D9A"/>
</mask>
<g mask="url(#mask0_1147_9102)">
<path d="M51.75 0H0V51.75H51.75V0Z" fill="#231D9A"/>
<path d="M21.832 21.832V-0.808594H19.4062V16.5762L2.02148 4.85156L-3.23438 11.7246L8.49023 19.4062H-2.02148V21.832H21.832Z" fill="white"/>
<path d="M21.832 29.918V52.5586H19.4062V35.1738L2.02148 46.8984L-3.23438 40.0254L8.49023 32.3438H-2.02148V29.918H21.832Z" fill="white"/>
<path d="M29.918 21.832V-0.808594H32.3438V16.5762L49.7285 4.85156L54.9844 11.7246L43.2598 19.4062H53.7715V21.832H29.918Z" fill="white"/>
<path d="M29.918 29.918V52.5586H32.3438V35.1738L49.7285 46.8984L54.9844 40.0254L43.2598 32.3438H53.7715V29.918H29.918Z" fill="white"/>
<path d="M19.4082 19.4062V19.002L2.42773 7.68164L-0.402344 10.916L12.1309 19.4062H19.4082Z" fill="#F0263C"/>
<path d="M19.4082 32.3438V32.748L2.42773 44.0684L-0.402344 40.834L12.1309 32.3438H19.4082Z" fill="#F0263C"/>
<path d="M32.3438 19.4062V19.002L49.3242 7.68164L52.1543 10.916L39.6211 19.4062H32.3438Z" fill="#F0263C"/>
<path d="M32.3438 32.3438V32.748L49.3242 44.0684L52.1543 40.834L39.6211 32.3438H32.3438Z" fill="#F0263C"/>
<path fill-rule="evenodd" clip-rule="evenodd" d="M29.918 21.832V-1.61719H21.832V21.832H-1.61719V29.918H21.832V53.3672H29.918V29.918H53.3672V21.832H29.918Z" fill="#F0263C"/>
</g>
</g>
<rect x="1.07812" y="1.07812" width="49.5938" height="49.5938" rx="24.7969" stroke="white" stroke-width="2.15625"/>
<defs>
<clipPath id="clip0_1147_9102">
<rect width="51.75" height="51.75" rx="25.875" fill="white"/>
</clipPath>
</defs>
</svg>
