<svg width="158" height="203" viewBox="0 0 158 203" fill="none" xmlns="http://www.w3.org/2000/svg">
<path d="M0 202.148V67.3828H33.6914V44.9219C33.6914 32.4093 38.0507 21.7946 46.7693 13.0779C55.486 4.3593 66.1007 0 78.6133 0C91.1259 0 101.741 4.3593 110.457 13.0779C119.176 21.7946 123.535 32.4093 123.535 44.9219V67.3828H157.227V202.148H0ZM11.2305 190.918H145.996V78.6133H11.2305V190.918ZM78.6133 151.611C83.3507 151.611 87.3422 149.988 90.5878 146.74C93.8353 143.495 95.459 139.503 95.459 134.766C95.459 130.028 93.8353 126.037 90.5878 122.791C87.3422 119.544 83.3507 117.92 78.6133 117.92C73.8759 117.92 69.8844 119.544 66.6388 122.791C63.3913 126.037 61.7676 130.028 61.7676 134.766C61.7676 139.503 63.3913 143.495 66.6388 146.74C69.8844 149.988 73.8759 151.611 78.6133 151.611ZM44.9219 67.3828H112.305V44.9219C112.305 35.5632 109.029 27.6082 102.478 21.0571C95.9269 14.506 87.972 11.2305 78.6133 11.2305C69.2546 11.2305 61.2996 14.506 54.7485 21.0571C48.1974 27.6082 44.9219 35.5632 44.9219 44.9219V67.3828Z" fill="url(#paint0_radial_1147_14288)"/>
<defs>
<radialGradient id="paint0_radial_1147_14288" cx="0" cy="0" r="1" gradientUnits="userSpaceOnUse" gradientTransform="translate(78.6133 101.074) rotate(180) scale(78.678 149.768)">
<stop stop-color="#F4FFD9"/>
<stop offset="0.611891" stop-color="#C6FF36"/>
<stop offset="0.922494" stop-color="#739A0F"/>
</radialGradient>
</defs>
</svg>
