<svg width="57" height="57" viewBox="0 0 57 57" fill="none" xmlns="http://www.w3.org/2000/svg">
<g filter="url(#filter0_d_1147_9101)">
<path d="M12.6149 39.0403C14.9059 37.3921 17.3369 36.0887 19.9077 35.13C22.4786 34.1709 25.262 33.6914 28.2578 33.6914C31.2537 33.6914 34.037 34.1709 36.6079 35.13C39.1788 36.0887 41.6097 37.3921 43.9007 39.0403C45.6805 37.1985 47.112 35.0233 48.195 32.5149C49.2786 30.006 49.8203 27.2537 49.8203 24.2578C49.8203 18.2832 47.7202 13.1958 43.52 8.99561C39.3198 4.79541 34.2324 2.69531 28.2578 2.69531C22.2832 2.69531 17.1958 4.79541 12.9956 8.99561C8.79541 13.1958 6.69531 18.2832 6.69531 24.2578C6.69531 27.2537 7.23707 30.006 8.32059 32.5149C9.40365 35.0233 10.8351 37.1985 12.6149 39.0403ZM28.2578 25.6055C25.9875 25.6055 24.0722 24.8254 22.5121 23.2653C20.9519 21.7051 20.1719 19.7899 20.1719 17.5195C20.1719 15.2492 20.9519 13.3339 22.5121 11.7738C24.0722 10.2137 25.9875 9.43359 28.2578 9.43359C30.5282 9.43359 32.4434 10.2137 34.0035 11.7738C35.5637 13.3339 36.3438 15.2492 36.3438 17.5195C36.3438 19.7899 35.5637 21.7051 34.0035 23.2653C32.4434 24.8254 30.5282 25.6055 28.2578 25.6055ZM28.2578 48.5156C24.8747 48.5156 21.7078 47.8858 18.7568 46.6262C15.8059 45.3666 13.2384 43.645 11.0543 41.4613C8.87066 39.2772 7.14902 36.7097 5.88941 33.7588C4.6298 30.8079 4 27.6409 4 24.2578C4 20.8747 4.6298 17.7078 5.88941 14.7568C7.14902 11.8059 8.87066 9.23841 11.0543 7.05431C13.2384 4.87066 15.8059 3.14902 18.7568 1.88941C21.7078 0.629803 24.8747 0 28.2578 0C31.6409 0 34.8079 0.629803 37.7588 1.88941C40.7097 3.14902 43.2772 4.87066 45.4613 7.05431C47.645 9.23841 49.3666 11.8059 50.6262 14.7568C51.8858 17.7078 52.5156 20.8747 52.5156 24.2578C52.5156 27.6409 51.8858 30.8079 50.6262 33.7588C49.3666 36.7097 47.645 39.2772 45.4613 41.4613C43.2772 43.645 40.7097 45.3666 37.7588 46.6262C34.8079 47.8858 31.6409 48.5156 28.2578 48.5156Z" fill="white"/>
</g>
<defs>
<filter id="filter0_d_1147_9101" x="0" y="0" width="56.5156" height="56.5156" filterUnits="userSpaceOnUse" color-interpolation-filters="sRGB">
<feFlood flood-opacity="0" result="BackgroundImageFix"/>
<feColorMatrix in="SourceAlpha" type="matrix" values="0 0 0 0 0 0 0 0 0 0 0 0 0 0 0 0 0 0 127 0" result="hardAlpha"/>
<feOffset dy="4"/>
<feGaussianBlur stdDeviation="2"/>
<feComposite in2="hardAlpha" operator="out"/>
<feColorMatrix type="matrix" values="0 0 0 0 0 0 0 0 0 0 0 0 0 0 0 0 0 0 0.25 0"/>
<feBlend mode="normal" in2="BackgroundImageFix" result="effect1_dropShadow_1147_9101"/>
<feBlend mode="normal" in="SourceGraphic" in2="effect1_dropShadow_1147_9101" result="shape"/>
</filter>
</defs>
</svg>
