<svg width="50" height="51" viewBox="0 0 50 51" fill="none" xmlns="http://www.w3.org/2000/svg">
<path d="M14.306 50.1746C13.1691 50.1746 12.2109 49.7849 11.4315 49.0055C10.6525 48.2261 10.2631 47.2681 10.2631 46.1316C10.2631 44.9947 10.6525 44.0365 11.4315 43.2571C12.2109 42.4781 13.1691 42.0887 14.306 42.0887C15.443 42.0887 16.401 42.4781 17.1799 43.2571C17.9593 44.0365 18.349 44.9947 18.349 46.1316C18.349 47.2681 17.9593 48.2261 17.1799 49.0055C16.401 49.7849 15.443 50.1746 14.306 50.1746ZM39.6002 50.1746C38.4632 50.1746 37.5053 49.7849 36.7263 49.0055C35.9469 48.2261 35.5572 47.2681 35.5572 46.1316C35.5572 44.9947 35.9469 44.0365 36.7263 43.2571C37.5053 42.4781 38.4632 42.0887 39.6002 42.0887C40.7372 42.0887 41.6954 42.4781 42.4748 43.2571C43.2537 44.0365 43.6432 44.9947 43.6432 46.1316C43.6432 47.2681 43.2537 48.2261 42.4748 49.0055C41.6954 49.7849 40.7372 50.1746 39.6002 50.1746ZM10.4598 8.08594L17.6543 23.2215H36.5215L44.815 8.08594H10.4598ZM9.14317 5.39063H49.366L38.1333 25.9168H16.4414L12.0251 34.0027H43.6432V36.698H7.3865L14.7824 23.491L4.87245 2.69531H0V0H6.58263L9.14317 5.39063Z" fill="white"/>
</svg>
