<svg width="74" height="74" viewBox="0 0 74 74" fill="none" xmlns="http://www.w3.org/2000/svg">
<path d="M50.7113 17.7783C48.6236 15.3942 47.473 12.333 47.4733 9.16406H38.0343V47.0422C37.963 49.0925 37.0981 51.0349 35.622 52.4597C34.146 53.8844 32.1742 54.6801 30.1227 54.6789C25.785 54.6789 22.1805 51.1355 22.1805 46.7367C22.1805 41.4827 27.2513 37.5421 32.4748 39.1611V29.5083C21.9361 28.1031 12.7109 36.2897 12.7109 46.7367C12.7109 56.9088 21.1419 64.1484 30.0921 64.1484C39.6838 64.1484 47.4733 56.359 47.4733 46.7367V27.5227C51.3008 30.2715 55.8962 31.7463 60.6084 31.7382V22.2992C60.6084 22.2992 54.8656 22.5741 50.7113 17.7783Z" fill="white"/>
</svg>
