<svg width="45" height="44" viewBox="0 0 45 44" fill="none" xmlns="http://www.w3.org/2000/svg">
<path fill-rule="evenodd" clip-rule="evenodd" d="M14.366 42.0213L11.2934 36.8193L5.41758 35.5525C4.91445 35.4447 4.51016 35.1842 4.20469 34.7709C3.89922 34.3576 3.78242 33.8904 3.8543 33.3693L4.44727 27.3857L0.485156 22.8306C0.161719 22.4533 0 22.0131 0 21.5099C0 21.0068 0.161719 20.5666 0.485156 20.1892L4.44727 15.6342L3.8543 9.65057C3.78242 9.12947 3.89922 8.66228 4.20469 8.249C4.51016 7.83572 4.91445 7.57518 5.41758 7.46736L11.2934 6.20057L14.366 0.998613C14.6355 0.567363 15.0084 0.270879 15.4846 0.10916C15.9607 -0.0525586 16.4324 -0.0345898 16.8996 0.163066L22.398 2.53494L27.8965 0.163066C28.3637 -0.0345898 28.8354 -0.0525586 29.3115 0.10916C29.7877 0.270879 30.1605 0.567363 30.4301 0.998613L33.5027 6.20057L39.3785 7.46736C39.8816 7.57518 40.2859 7.83572 40.5914 8.249C40.8969 8.66228 41.0137 9.12947 40.9418 9.65057L40.3488 15.6342L44.3109 20.1892C44.6344 20.5666 44.7961 21.0068 44.7961 21.5099C44.7961 22.0131 44.6344 22.4533 44.3109 22.8306L40.3488 27.3857L40.9418 33.3693C41.0137 33.8904 40.8969 34.3576 40.5914 34.7709C40.2859 35.1842 39.8816 35.4447 39.3785 35.5525L33.5027 36.8193L30.4301 42.0213C30.1605 42.4525 29.7877 42.749 29.3115 42.9107C28.8354 43.0724 28.3637 43.0545 27.8965 42.8568L22.398 40.4849L16.8996 42.8568C16.4324 43.0545 15.9607 43.0724 15.4846 42.9107C15.0084 42.749 14.6355 42.4525 14.366 42.0213ZM17.0344 20.0006L20.1879 23.1271L27.7348 15.5803C28.148 15.167 28.6287 14.9648 29.1768 14.9738C29.7248 14.9828 30.2055 15.1939 30.6187 15.6072C31.0141 16.0205 31.2162 16.4967 31.2252 17.0357C31.2342 17.5748 31.032 18.051 30.6187 18.4642L21.6164 27.4666C21.2031 27.8799 20.727 28.0865 20.1879 28.0865C19.6488 28.0865 19.1727 27.8799 18.7594 27.4666L14.1773 22.8846C13.782 22.4892 13.5844 22.0131 13.5844 21.456C13.5844 20.899 13.782 20.4228 14.1773 20.0275C14.5906 19.6142 15.0713 19.4076 15.6193 19.4076C16.1674 19.4076 16.6391 19.6053 17.0344 20.0006Z" fill="#66C4FF"/>
</svg>
